<?xml version="1.0" encoding="UTF-8"?>
<svg version="1.1" xmlns="http://www.w3.org/2000/svg" width="512" height="512">
<path d="M0 0 C1.45108658 0.00273422 1.45108658 0.00273422 2.93148804 0.00552368 C17.26440977 0.05095174 31.21023917 0.55983928 45.3125 3.3125 C46.65803955 3.55395752 46.65803955 3.55395752 48.03076172 3.80029297 C107.84088904 14.62287989 165.35495829 48.68064457 202.3125 97.3125 C202.72918945 97.85277832 203.14587891 98.39305664 203.57519531 98.94970703 C211.2584873 108.9447116 218.00092968 119.40459036 224.3125 130.3125 C224.70679199 130.98974121 225.10108398 131.66698242 225.50732422 132.36474609 C238.68961173 155.2833756 247.29510918 180.85822563 252.625 206.6875 C252.77243652 207.39817627 252.91987305 208.10885254 253.07177734 208.84106445 C256.05713787 224.48358366 256.6873098 240.11919606 256.625 256 C256.62226578 257.45108658 256.62226578 257.45108658 256.61947632 258.93148804 C256.57404826 273.26440977 256.06516072 287.21023917 253.3125 301.3125 C253.15152832 302.20952637 252.99055664 303.10655273 252.82470703 304.03076172 C242.00212011 363.84088904 207.94435543 421.35495829 159.3125 458.3125 C158.77222168 458.72918945 158.23194336 459.14587891 157.67529297 459.57519531 C147.6802884 467.2584873 137.22040964 474.00092968 126.3125 480.3125 C125.63525879 480.70679199 124.95801758 481.10108398 124.26025391 481.50732422 C101.3416244 494.68961173 75.76677437 503.29510918 49.9375 508.625 C49.22682373 508.77243652 48.51614746 508.91987305 47.78393555 509.07177734 C32.14141634 512.05713787 16.50580394 512.6873098 0.625 512.625 C-0.34239105 512.62317719 -1.3097821 512.62135437 -2.30648804 512.61947632 C-16.63940977 512.57404826 -30.58523917 512.06516072 -44.6875 509.3125 C-45.58452637 509.15152832 -46.48155273 508.99055664 -47.40576172 508.82470703 C-107.21588904 498.00212011 -164.72995829 463.94435543 -201.6875 415.3125 C-202.10418945 414.77222168 -202.52087891 414.23194336 -202.95019531 413.67529297 C-210.6334873 403.6802884 -217.37592968 393.22040964 -223.6875 382.3125 C-224.08179199 381.63525879 -224.47608398 380.95801758 -224.88232422 380.26025391 C-238.06461173 357.3416244 -246.67010918 331.76677437 -252 305.9375 C-252.14743652 305.22682373 -252.29487305 304.51614746 -252.44677734 303.78393555 C-255.43213787 288.14141634 -256.0623098 272.50580394 -256 256.625 C-255.99817719 255.65760895 -255.99635437 254.6902179 -255.99447632 253.69351196 C-255.94904826 239.36059023 -255.44016072 225.41476083 -252.6875 211.3125 C-252.44604248 209.96696045 -252.44604248 209.96696045 -252.19970703 208.59423828 C-241.37712011 148.78411096 -207.31935543 91.27004171 -158.6875 54.3125 C-158.14722168 53.89581055 -157.60694336 53.47912109 -157.05029297 53.04980469 C-147.0552884 45.3665127 -136.59540964 38.62407032 -125.6875 32.3125 C-125.01025879 31.91820801 -124.33301758 31.52391602 -123.63525391 31.11767578 C-100.7166244 17.93538827 -75.14177437 9.32989082 -49.3125 4 C-48.60182373 3.85256348 -47.89114746 3.70512695 -47.15893555 3.55322266 C-31.51641634 0.56786213 -15.88080394 -0.0623098 0 0 Z " fill="#C53C22" transform="translate(255.6875,-0.3125)"/>
<path d="M0 0 C3.37380976 2.29695687 6.40971092 4.59266548 9.2421875 7.5390625 C10.16451172 8.41884766 10.16451172 8.41884766 11.10546875 9.31640625 C13.6362542 9.24610665 15.53924664 8.55961575 17.8515625 7.56640625 C25.35346203 4.42677828 31.85483254 4.19722262 39.48046875 7.19140625 C42.40254863 8.47635994 45.25847047 9.87340712 48.10546875 11.31640625 C49.25015625 9.80046875 49.25015625 9.80046875 50.41796875 8.25390625 C57.77872507 -0.28457108 67.75133628 -4.9975164 78.83203125 -6.03125 C90.53387249 -6.6304364 101.1302355 -3.95244463 110.3359375 3.6640625 C119.57414448 12.29046769 125.59036346 22.36674094 126.25390625 35.18359375 C126.30990677 39.40603293 126.29311156 43.24041613 125.10546875 47.31640625 C126.21921875 47.21328125 127.33296875 47.11015625 128.48046875 47.00390625 C135.66458063 47.02933673 141.80085154 50.80825682 146.98046875 55.56640625 C153.38234349 62.63419703 154.79326446 69.50099901 154.48828125 78.9453125 C153.94688408 83.71292227 152.67028864 87.28367058 150.10546875 91.31640625 C149.71617187 91.9403125 149.326875 92.56421875 148.92578125 93.20703125 C144.79194443 98.83296302 138.6428328 102.13462094 132.10546875 104.31640625 C129.46546875 104.31640625 126.82546875 104.31640625 124.10546875 104.31640625 C124.10546875 113.55640625 124.10546875 122.79640625 124.10546875 132.31640625 C128.28332031 132.27 132.46117187 132.22359375 136.765625 132.17578125 C140.11041029 132.15003218 143.45516733 132.12835001 146.79999542 132.10940552 C150.32349243 132.08833903 153.84660051 132.06021861 157.36987305 132.01464844 C161.41849393 131.96261491 165.46670704 131.94341355 169.515625 131.92578125 C170.77004898 131.90513611 172.02447296 131.88449097 173.31690979 131.86322021 C180.10823192 131.86148241 184.79403564 131.87890673 190.10546875 136.31640625 C195.38468698 142.45206243 195.81856027 148.1023159 195.72070312 155.96142578 C195.72625214 157.10387756 195.73180115 158.24632935 195.73751831 159.42340088 C195.74928512 163.18243959 195.72507007 166.94026518 195.69921875 170.69921875 C195.69750704 173.31899969 195.69757395 175.93878233 195.69934082 178.55856323 C195.69928738 184.04098105 195.67960527 189.52305273 195.64746094 195.00537109 C195.61053671 201.33347296 195.60179174 207.66112246 195.60875845 213.98931801 C195.61507359 220.09333918 195.60407795 226.19718123 195.58479309 232.30117416 C195.5777651 234.89191814 195.57463831 237.48267574 195.57548523 240.07342911 C195.57368703 243.69259541 195.55230298 247.31112041 195.52539062 250.93017578 C195.52832123 251.99942291 195.53125183 253.06867004 195.53427124 254.1703186 C195.4519368 261.34882985 194.60920436 265.86830921 189.29296875 271.06640625 C184.44888103 274.48576229 180.16836201 275.5700845 174.28369141 275.54345703 C172.60262802 275.54323044 172.60262802 275.54323044 170.88760376 275.54299927 C169.09665787 275.52751541 169.09665787 275.52751541 167.26953125 275.51171875 C166.03504242 275.50888885 164.80055359 275.50605896 163.52865601 275.50314331 C159.59582726 275.49197147 155.66322838 275.46687189 151.73046875 275.44140625 C149.05989916 275.4302445 146.38933174 275.42224744 143.71875 275.4140625 C137.1809115 275.3920419 130.64320655 275.35859384 124.10546875 275.31640625 C124.1154615 276.41062393 124.1154615 276.41062393 124.12565613 277.52694702 C124.18605488 284.44036912 124.23158828 291.35375119 124.26090527 298.26737022 C124.27648477 301.82077776 124.29757946 305.37396519 124.33178711 308.92724609 C124.37096651 313.02313207 124.38524159 317.11879099 124.3984375 321.21484375 C124.41392136 322.47565765 124.42940521 323.73647156 124.44535828 325.03549194 C124.44724003 335.00499733 123.41869045 344.89430284 116.10546875 352.31640625 C106.40006056 360.35166771 96.92797725 360.61369417 84.77001953 360.57519531 C83.32695337 360.57790919 81.88388859 360.58147234 80.44082642 360.58581543 C76.53989182 360.59489621 72.63906358 360.59141261 68.73812723 360.58505726 C64.64286939 360.57997292 60.54762029 360.58469564 56.45236206 360.58782959 C49.57450741 360.59146298 42.69669577 360.58668747 35.81884766 360.57714844 C27.88677266 360.56627375 19.95480057 360.56978482 12.02272809 360.58080125 C5.19443261 360.58990236 -1.63383203 360.59114537 -8.46213162 360.58592391 C-12.53235694 360.58281859 -16.60253404 360.58235492 -20.6727562 360.58899689 C-24.50268193 360.59481062 -28.33247619 360.59070042 -32.16238785 360.57920837 C-33.56111687 360.57658282 -34.95985712 360.57729049 -36.35858154 360.5817337 C-49.39866549 360.61931046 -58.79496934 360.12067163 -68.39453125 350.87109375 C-73.92179112 344.85032854 -76.02147569 336.69501626 -76.01757908 328.67188549 C-76.01957013 327.76321419 -76.02156118 326.85454289 -76.02361256 325.91833609 C-76.0192433 324.43438541 -76.0192433 324.43438541 -76.01478577 322.92045593 C-76.01564019 321.8626273 -76.01649462 320.80479867 -76.01737493 319.71491462 C-76.01902402 316.16498778 -76.01351764 312.61510804 -76.00805664 309.06518555 C-76.00777462 306.52260845 -76.00793279 303.98003127 -76.00849915 301.43745422 C-76.00872698 295.96069933 -76.00588775 290.48395964 -76.00026131 285.00720787 C-75.99213173 277.08876199 -75.98952959 269.17032188 -75.98827332 261.25187228 C-75.98608509 248.40448385 -75.97943122 235.55710178 -75.9699707 222.7097168 C-75.96079066 210.23022493 -75.95371272 197.75073479 -75.94946289 185.27124023 C-75.94906881 184.11724337 -75.94906881 184.11724337 -75.94866676 182.93993344 C-75.94736171 179.08039624 -75.94609801 175.22085903 -75.94485486 171.36132181 C-75.93448939 139.34634534 -75.9168773 107.33137668 -75.89453125 75.31640625 C-77.15837646 75.17323975 -78.42222168 75.03007324 -79.72436523 74.88256836 C-86.43691851 74.12218032 -91.62909806 70.92247522 -96.05078125 65.8359375 C-102.28351481 57.18929688 -103.09326033 48.78244 -101.89453125 38.31640625 C-99.49946473 30.28062233 -93.10359558 24.87766667 -86.140625 20.640625 C-82.30568214 19.07618982 -78.9641866 18.90828465 -74.89453125 19.00390625 C-74.20875 19.00068359 -73.52296875 18.99746094 -72.81640625 18.99414062 C-68.48309488 19.03962385 -64.92151381 19.73707403 -60.89453125 21.31640625 C-60.85328125 20.65640625 -60.81203125 19.99640625 -60.76953125 19.31640625 C-58.27695308 10.77042394 -50.13047895 3.59372166 -42.78515625 -1.00390625 C-40.85129406 -2.01581089 -38.92310672 -2.88061596 -36.89453125 -3.68359375 C-35.86328125 -4.09609375 -34.83203125 -4.50859375 -33.76953125 -4.93359375 C-22.05938734 -7.20007322 -10.40790341 -6.05371979 0 0 Z " fill="#EFDCB2" transform="translate(231.89453125,66.68359375)"/>
<path d="M0 0 C4.69420894 3.9505876 9.22470583 8.02584879 13.6502533 12.27429199 C14.28101778 12.87739055 14.91178227 13.48048911 15.56166083 14.10186338 C17.65647661 16.1066738 19.74823985 18.11463184 21.83959961 20.12304688 C22.57601936 20.8292045 23.31243912 21.53536213 24.07117462 22.26291847 C38.60990079 36.20766641 53.03554758 50.267514 67.42108822 64.3700943 C76.56824482 73.33277567 85.74772198 82.25658189 95.01586914 91.09423828 C103.12401606 98.8259099 111.16101153 106.62406192 119.12265021 114.50661707 C123.32872394 118.66640134 127.56025724 122.78769463 131.87898064 126.83067322 C161.14944673 154.30362583 161.14944673 154.30362583 162.24179488 171.91537428 C162.41755773 179.72042434 161.55896299 187.36246312 160.29824567 195.05104065 C159.70169987 198.94931524 159.41967182 202.88085207 159.0794363 206.80786896 C158.62861169 211.24901239 157.82419757 215.61546536 157 220 C156.83902832 220.90572754 156.67805664 221.81145508 156.51220703 222.74462891 C145.68039719 282.54329478 111.62376408 340.04860727 63 377 C62.45972168 377.41668945 61.91944336 377.83337891 61.36279297 378.26269531 C51.3677884 385.9459873 40.90790964 392.68842968 30 399 C29.32275879 399.39429199 28.64551758 399.78858398 27.94775391 400.19482422 C-1.06651177 416.8831865 -35.72142854 428.10203017 -69.20062256 430.58312988 C-72.3458025 430.82478527 -75.40592064 431.22351812 -78.51617432 431.74230957 C-86.36063417 432.74419808 -92.62619025 432.48266827 -99.12976074 427.61987305 C-104.27968899 423.21601107 -108.95717774 418.36452563 -113.5957098 413.43216896 C-115.94383434 410.95764164 -118.35009329 408.54090629 -120.75030518 406.11706543 C-125.27121004 401.53438726 -129.7387788 396.90326854 -134.18866658 392.25171423 C-139.26347472 386.95210354 -144.39630256 381.7102585 -149.5343852 376.47208691 C-160.0879448 365.7103674 -170.5678148 354.87951928 -181 344 C-178.41929243 342.70964621 -177.55163302 343.22381959 -174.78515625 343.92033386 C-168.01937094 345.35833418 -161.32520894 345.28850261 -154.4375 345.2746582 C-152.99413797 345.27901409 -151.55077824 345.28420014 -150.10742188 345.29014587 C-146.21487835 345.30345054 -142.32243241 345.30412431 -138.42987061 345.30158257 C-135.16955293 345.30050738 -131.90925455 345.30540999 -128.64894104 345.310188 C-120.95344578 345.32125292 -113.25799935 345.32173713 -105.5625 345.31567383 C-97.64511809 345.30963135 -89.72791376 345.3219589 -81.81056213 345.3432439 C-74.99071629 345.36089865 -68.17092679 345.3668553 -61.35105896 345.36360615 C-57.28753826 345.36179987 -53.22414436 345.36436398 -49.16064453 345.37832069 C-45.33885533 345.39095835 -41.51734194 345.38889935 -37.69555664 345.37590981 C-36.30004785 345.37355762 -34.90451927 345.37622955 -33.5090332 345.38453293 C-23.24902304 345.44114056 -13.91620561 345.17406133 -6 338 C-5.34 338 -4.68 338 -4 338 C-3.71253906 337.42121094 -3.42507813 336.84242188 -3.12890625 336.24609375 C-2.42019262 334.83602338 -1.70043581 333.43139326 -0.96484375 332.03515625 C-0.62582031 331.38417969 -0.28679687 330.73320312 0.0625 330.0625 C0.40410156 329.41410156 0.74570312 328.76570313 1.09765625 328.09765625 C2.94118706 323.81204566 3.13724922 319.54380303 3.20532227 314.92456055 C3.22526749 313.72369308 3.24521271 312.52282562 3.26576233 311.28556824 C3.28247482 309.99894791 3.29918732 308.71232758 3.31640625 307.38671875 C3.33699635 306.04864388 3.35799335 304.71057521 3.37937927 303.37251282 C3.43438775 299.86271206 3.48388994 296.35285468 3.53222656 292.84295654 C3.58259728 289.25658165 3.6382018 285.67028827 3.69335938 282.08398438 C3.80068103 275.0560604 3.90218293 268.02806321 4 261 C5.02571106 260.99120064 5.02571106 260.99120064 6.07214355 260.98222351 C13.21047336 260.91812607 20.34835915 260.83366388 27.48632812 260.73754883 C30.14782607 260.70274213 32.80903143 260.67631239 35.47070312 260.65356445 C39.30368497 260.61990411 43.13603516 260.56757986 46.96875 260.51171875 C48.74421204 260.50213387 48.74421204 260.50213387 50.55554199 260.49235535 C60.78023138 260.37990947 60.78023138 260.37990947 69.55041504 255.58403015 C73.05708309 251.57946801 74.12009457 248.41261172 74.15390015 243.21333313 C74.16250061 242.22790024 74.17110107 241.24246735 74.17996216 240.22717285 C74.18422211 239.14713989 74.18848206 238.06710693 74.19287109 236.9543457 C74.20104858 235.81583664 74.20922607 234.67732758 74.21765137 233.50431824 C74.24250903 229.72814461 74.25902285 225.9520086 74.2734375 222.17578125 C74.28142302 220.24212235 74.28142302 220.24212235 74.28956985 218.26939964 C74.3108003 212.85035077 74.32992956 207.43131413 74.34119225 202.01223469 C74.35741559 194.25843558 74.39055689 186.50513881 74.44759309 178.75152904 C74.49105012 172.63422867 74.50694617 166.51712445 74.51332474 160.39967918 C74.52004049 157.80217095 74.53527076 155.20467011 74.55921555 152.60726357 C74.5908437 148.96866391 74.59090634 145.33132807 74.58349609 141.69262695 C74.59990143 140.62271515 74.61630676 139.55280334 74.63320923 138.45046997 C74.57793344 131.8086429 73.64433466 126.96185957 69 122 C64.94711242 119.27223202 61.73754501 118.61950156 56.90283203 118.56762695 C55.72206085 118.54783279 54.54128967 118.52803864 53.32473755 118.50764465 C52.06515228 118.50125473 50.80556702 118.49486481 49.5078125 118.48828125 C48.20673553 118.47033005 46.90565857 118.45237885 45.56515503 118.43388367 C42.12277213 118.38655179 38.680454 118.35663445 35.237854 118.33044434 C31.71833599 118.30055329 28.19903634 118.25421184 24.6796875 118.20898438 C17.78644188 118.12159948 10.8937192 118.06151319 4 118 C4 108.76 4 99.52 4 90 C9.445 89.01 9.445 89.01 15 88 C20.62769784 85.59819154 25.7910453 82.30711739 29 77 C29.36867188 76.39929688 29.73734375 75.79859375 30.1171875 75.1796875 C34.10114747 67.73380369 34.53156224 59.19460743 32.15234375 51.125 C28.81379175 43.70096572 23.60013238 38.92864235 16.5 35.125 C12.58432759 33.86639101 9.08960494 33.35873728 5 33 C5.03480469 32.05640625 5.06960938 31.1128125 5.10546875 30.140625 C5.33243867 19.37576591 3.67896353 10.187899 0 0 Z " fill="#9E231D" transform="translate(352,81)"/>
<path d="M0 0 C58.08 0 116.16 0 176 0 C176.103125 27.01875 176.20625 54.0375 176.3125 81.875 C176.35802002 90.39812012 176.40354004 98.92124023 176.45043945 107.70263672 C176.47302246 118.13110352 176.47302246 118.13110352 176.47721863 123.01712036 C176.48186657 126.42101421 176.50056174 129.82451597 176.52787781 133.228302 C176.56231883 137.57791184 176.5724294 141.92695623 176.56536138 146.27668977 C176.56683807 147.86809848 176.5766677 149.45952811 176.59607565 151.05081916 C176.71012083 160.86191686 176.20846974 169.36521876 169.24440479 176.89929008 C161.589399 184.17048372 153.81662318 184.44365842 143.69604492 184.41992188 C142.35164183 184.42727053 141.00724503 184.43585907 139.66285706 184.44558716 C136.02629618 184.46773083 132.38996238 184.47073738 128.75334334 184.46883965 C125.70938733 184.46871959 122.66547881 184.47729828 119.62153608 184.48561716 C112.43475132 184.50482635 105.24808269 184.5077445 98.0612793 184.50097656 C90.66699132 184.49434084 83.27320282 184.51718656 75.8790161 184.55429029 C69.51356181 184.58506347 63.14826753 184.59633901 56.78274041 184.59245348 C52.98846743 184.59039343 49.19458309 184.59574863 45.40038109 184.62034607 C41.82879407 184.64273689 38.25801425 184.64063489 34.68642235 184.62041855 C32.7656202 184.61542539 30.84480216 184.63493894 28.92410278 184.65542603 C20.46448095 184.57401845 13.47636053 183.11533526 7.09059429 177.24459076 C1.76807127 171.60337532 -0.37832312 165.5794175 -0.36076355 157.8941803 C-0.3633316 157.21603775 -0.36589966 156.5378952 -0.36854553 155.83920288 C-0.37347797 153.57883414 -0.35699652 151.31914482 -0.34057617 149.05883789 C-0.33965644 147.40595489 -0.34005888 145.75307072 -0.34167194 144.10018826 C-0.3423475 139.68535111 -0.32499647 135.27075932 -0.30384064 130.85597992 C-0.2867193 126.70895132 -0.2859493 122.56198154 -0.28381348 118.41491699 C-0.26808952 106.29741233 -0.22620588 94.17995304 -0.1875 82.0625 C-0.0946875 41.4415625 -0.0946875 41.4415625 0 0 Z " fill="#CE8400" transform="translate(168,226)"/>
<path d="M0 0 C33 0 66 0 100 0 C100 18.81 100 37.62 100 57 C104.17785156 56.95359375 108.35570312 56.9071875 112.66015625 56.859375 C116.00494154 56.83362593 119.34969858 56.81194376 122.69452667 56.79299927 C126.21802368 56.77193278 129.74113176 56.74381236 133.2644043 56.69824219 C137.31302518 56.64620866 141.36123829 56.6270073 145.41015625 56.609375 C146.66458023 56.58872986 147.91900421 56.56808472 149.21144104 56.54681396 C156.00276317 56.54507616 160.68856689 56.56250048 166 61 C171.27921823 67.13565618 171.71309152 72.78590965 171.61523438 80.64501953 C171.62078339 81.78747131 171.6263324 82.9299231 171.63204956 84.10699463 C171.64381637 87.86603334 171.61960132 91.62385893 171.59375 95.3828125 C171.59203829 98.00259344 171.5921052 100.62237608 171.59387207 103.24215698 C171.59381863 108.7245748 171.57413652 114.20664648 171.54199219 119.68896484 C171.50506796 126.01706671 171.49632299 132.34471621 171.5032897 138.67291176 C171.50960484 144.77693293 171.4986092 150.88077498 171.47932434 156.98476791 C171.47229635 159.57551189 171.46916956 162.16626949 171.47001648 164.75702286 C171.46821828 168.37618916 171.44683423 171.99471416 171.41992188 175.61376953 C171.42285248 176.68301666 171.42578308 177.75226379 171.42880249 178.85391235 C171.34646805 186.0324236 170.50373561 190.55190296 165.1875 195.75 C160.34341228 199.16935604 156.06289326 200.25367825 150.17822266 200.22705078 C148.49715927 200.22682419 148.49715927 200.22682419 146.78213501 200.22659302 C144.99118912 200.21110916 144.99118912 200.21110916 143.1640625 200.1953125 C141.92957367 200.1924826 140.69508484 200.18965271 139.42318726 200.18673706 C135.49035851 200.17556522 131.55775963 200.15046564 127.625 200.125 C124.95443041 200.11383825 122.28386299 200.10584119 119.61328125 200.09765625 C113.07544275 200.07563565 106.5377378 200.04218759 100 200 C100.00999275 201.09421768 100.00999275 201.09421768 100.02018738 202.21054077 C100.08058613 209.12396287 100.12611953 216.03734494 100.15543652 222.95096397 C100.17101602 226.50437151 100.19211071 230.05755894 100.22631836 233.61083984 C100.26549776 237.70672582 100.27977284 241.80238474 100.29296875 245.8984375 C100.30845261 247.1592514 100.32393646 248.42006531 100.33988953 249.71908569 C100.34177128 259.68859108 99.3132217 269.57789659 92 277 C82.23970613 285.08070219 72.72961978 285.29352672 60.50585938 285.22705078 C59.0465699 285.22648589 57.58727986 285.22680475 56.12799072 285.22793579 C52.18639098 285.22850725 48.24491412 285.21678655 44.30334282 285.20278788 C40.17672227 285.19024595 36.05009859 285.18910729 31.92346191 285.18673706 C24.11802211 285.18053244 16.31263865 285.16413545 8.50722361 285.14403808 C-0.38274857 285.12164733 -9.27272349 285.11067767 -18.16271687 285.10064721 C-36.44184313 285.07976829 -54.72091703 285.04461218 -73 285 C-73 284.67 -73 284.34 -73 284 C-48.91 284 -24.82 284 0 284 C0 278.72 0 273.44 0 268 C3.05677002 267.99383667 3.05677002 267.99383667 6.17529297 267.98754883 C12.94083913 267.97027991 19.70601131 267.92565993 26.47132683 267.86790943 C30.5694993 267.83375325 34.66730351 267.80854732 38.765625 267.80444336 C42.72766926 267.80013574 46.68888439 267.77147202 50.6506691 267.72656822 C52.15512368 267.71367123 53.65967789 267.70925764 55.16418076 267.71384621 C64.72293258 267.73619008 73.11162876 267.17436568 80.6010437 260.59309387 C85.61223494 255.08831294 87.37109782 249.14971347 87.39872742 241.8941803 C87.40537424 241.21441318 87.41202107 240.53464607 87.41886932 239.83427995 C87.43739691 237.57564339 87.43490109 235.31754135 87.43237305 233.05883789 C87.4413965 231.43220274 87.45172516 229.80557438 87.46325684 228.17895508 C87.4907845 223.77659936 87.50010559 219.37437281 87.50611091 214.97194219 C87.5155056 210.36612555 87.54170989 205.76040497 87.56611633 201.15464783 C87.60975488 192.43903049 87.63831809 183.72343182 87.66143972 175.00773853 C87.69356886 163.22596316 87.74903721 151.44429904 87.80318546 139.66260815 C87.88784558 121.10843853 87.941367 102.55431239 88 84 C58.96 84 29.92 84 0 84 C0 56.28 0 28.56 0 0 Z " fill="#D7C29B" transform="translate(256,142)"/>
<path d="M0 0 C29.04 0 58.08 0 88 0 C88 60.72 88 121.44 88 184 C14.09259259 184 14.09259259 184 5.5625 175.625 C1.1469256 170.27358744 -0.37633998 164.71146441 -0.36076355 157.8941803 C-0.36332682 157.21441318 -0.3658901 156.53464607 -0.36853105 155.83427995 C-0.37343955 153.57555145 -0.35702568 151.31750394 -0.34057617 149.05883789 C-0.33972926 147.43221045 -0.34020629 145.80558186 -0.34190369 144.17895508 C-0.34276256 139.77651626 -0.32515425 135.37432387 -0.30418181 130.97194219 C-0.28539708 126.36619019 -0.28366316 121.76043222 -0.28010559 117.15464783 C-0.2707904 108.43895706 -0.24618374 99.7233795 -0.21605712 91.00773853 C-0.1762185 79.22605556 -0.16005398 67.44434151 -0.14255047 55.66260815 C-0.11436228 37.10832067 -0.05458923 18.55427208 0 0 Z " fill="#FEA800" transform="translate(168,226)"/>
<path d="M0 0 C9.43429167 7.805635 16.19764907 17.83071908 17.625 30.1875 C17.89037422 35.31341252 18.07117705 40.22422038 16.625 45.1875 C18.295625 45.0328125 18.295625 45.0328125 20 44.875 C27.18411188 44.90043048 33.32038279 48.67935057 38.5 53.4375 C44.90187474 60.50529078 46.31279571 67.37209276 46.0078125 76.81640625 C45.46641533 81.58401602 44.18981989 85.15476433 41.625 89.1875 C41.23570312 89.81140625 40.84640625 90.4353125 40.4453125 91.078125 C36.31147568 96.70405677 30.16236405 100.00571469 23.625 102.1875 C20.985 102.1875 18.345 102.1875 15.625 102.1875 C15.625 92.6175 15.625 83.0475 15.625 73.1875 C-17.375 73.1875 -50.375 73.1875 -84.375 73.1875 C-84.375 50.0875 -84.375 26.9875 -84.375 3.1875 C-73.11952555 3.1875 -73.11952555 3.1875 -69 5.0625 C-68.20851563 5.41054687 -67.41703125 5.75859375 -66.6015625 6.1171875 C-64.51513142 7.12013858 -62.43987472 8.14091966 -60.375 9.1875 C-59.611875 8.176875 -58.84875 7.16625 -58.0625 6.125 C-43.29378772 -11.00670624 -18.06652009 -12.63271998 0 0 Z " fill="#D0D4D8" transform="translate(340.375,68.8125)"/>
<path d="M0 0 C3.37357342 2.29679596 6.40736045 4.58358538 9.2265625 7.54296875 C9.84660156 8.12820312 10.46664062 8.7134375 11.10546875 9.31640625 C13.88762161 9.17729861 15.70315129 8.5236607 18.16796875 7.25390625 C20.10546875 6.31640625 20.10546875 6.31640625 24.10546875 6.31640625 C24.10546875 29.08640625 24.10546875 51.85640625 24.10546875 75.31640625 C-1.69786526 75.5169503 -1.69786526 75.5169503 -12.73046875 75.56054688 C-20.24692521 75.59039016 -27.76307596 75.62562498 -35.27929688 75.69360352 C-41.34178128 75.74808849 -47.40393767 75.77786192 -53.4666481 75.79079247 C-55.77503749 75.80000266 -58.08340973 75.81798801 -60.39165878 75.84505653 C-63.63502998 75.88156478 -66.87706055 75.88634234 -70.12060547 75.8840332 C-71.06648026 75.90200958 -72.01235504 75.91998596 -72.9868927 75.93850708 C-81.66880152 75.87199864 -89.69849857 72.51243893 -95.89453125 66.31640625 C-102.22129013 57.61035343 -103.10498406 48.88479918 -101.89453125 38.31640625 C-99.49946473 30.28062233 -93.10359558 24.87766667 -86.140625 20.640625 C-82.30568214 19.07618982 -78.9641866 18.90828465 -74.89453125 19.00390625 C-74.20875 19.00068359 -73.52296875 18.99746094 -72.81640625 18.99414062 C-68.48309488 19.03962385 -64.92151381 19.73707403 -60.89453125 21.31640625 C-60.85328125 20.65640625 -60.81203125 19.99640625 -60.76953125 19.31640625 C-58.27695308 10.77042394 -50.13047895 3.59372166 -42.78515625 -1.00390625 C-40.85129406 -2.01581089 -38.92310672 -2.88061596 -36.89453125 -3.68359375 C-35.86328125 -4.09609375 -34.83203125 -4.50859375 -33.76953125 -4.93359375 C-22.05938734 -7.20007322 -10.40790341 -6.05371979 0 0 Z " fill="#FEFEFE" transform="translate(231.89453125,66.68359375)"/>
<path d="M0 0 C37.76551375 0 37.76551375 0 42.85073853 4.71656799 C44.47814362 7.95000874 44.41857596 10.99594085 44.38818359 14.53491211 C44.39344055 15.28824326 44.39869751 16.0415744 44.40411377 16.81773376 C44.41730213 19.30448225 44.40857922 21.79058891 44.3984375 24.27734375 C44.40045879 26.00842919 44.40337069 27.73951379 44.40713501 29.47059631 C44.41155695 33.09791169 44.40513233 36.72500534 44.39111328 40.35229492 C44.37403418 44.99730329 44.38385518 49.64179114 44.40183067 54.28678036 C44.41268296 57.86161708 44.40921533 61.43633087 44.4014473 65.01117134 C44.39944862 66.72355778 44.40189289 68.43595545 44.40888596 70.14832878 C44.41652289 72.54441658 44.40486494 74.93966771 44.38818359 77.33569336 C44.39729263 78.39333893 44.39729263 78.39333893 44.40658569 79.47235107 C44.3506856 83.81642086 43.6714478 86.55318484 41 90 C29.61512474 97.58991684 13.68291717 92 0 92 C0 61.64 0 31.28 0 0 Z " fill="#9E231D" transform="translate(362,224)"/>
</svg>
